# 3ds Max Wavefront OBJ Exporter v0.97b - (c)2007 guruware
# File Created: 11.06.2013 16:46:12

#
# object tiny_weed_01
#

v  -23.9410 -1.4352 -41.4669
v  -41.4669 -1.4352 23.9410
v  0.0000 9.1453 -0.0000
v  23.9410 -1.4352 41.4669
v  41.4669 -1.4352 -23.9410
v  6.7690 23.5324 -13.4228
v  13.7100 2.4576 -31.5797
v  -4.3266 10.5248 -25.2023
v  -13.0701 -7.6681 -30.0641
v  -20.0110 13.4067 -11.9072
v  32.6820 -1.7153 9.4371
v  23.0834 -9.2555 -26.9492
v  17.7686 11.8653 -9.6835
v  -4.8152 17.0307 -25.0368
v  4.7834 24.5709 11.3495
v  -23.7881 19.9385 15.8866
v  -0.8293 -4.0664 35.1119
v  3.6953 15.8179 16.2286
v  27.2776 2.5723 9.8357
v  4.3187 26.5772 -9.3896
v  -5.5033 6.5971 -28.8740
v  -36.4969 -10.1031 -13.5948
v  -21.4230 12.2367 -6.8016
v  -30.5203 8.8464 19.2404
v  0.4733 25.5466 3.9612
v  22.7281 18.1859 -10.9329
v  -9.6637 11.4760 -33.4284
v  -5.6886 21.8855 -6.6878
v  -32.7100 13.2739 -0.7797
v  -0.3182 19.9838 21.7158
v  13.5209 11.1614 25.9373
v  5.8164 27.3576 -7.9932
v  -9.9503 19.1244 13.3624
v  -30.9176 16.7335 -4.7233
v  -23.2131 0.5373 29.2072
v  39.1918 5.0000 22.6274
v  22.6274 5.0000 -39.1918
v  0.0000 15.0000 -0.0000
v  -39.1918 5.0000 -22.6274
v  -22.6274 5.0000 39.1918
# 40 vertices

vn -0.1079 0.9764 -0.1869
vn -0.1869 0.9764 0.1079
vn 0.0000 1.0000 -0.0000
vn 0.1079 0.9764 0.1869
vn 0.1869 0.9764 -0.1079
vn -0.1508 0.7311 -0.6654
vn -0.0769 0.5068 -0.8586
vn -0.2625 0.5787 -0.7721
vn -0.3619 0.3991 -0.8425
vn -0.4358 0.6234 -0.6492
vn 0.7736 0.6106 -0.1697
vn 0.6972 0.5506 -0.4590
vn 0.6396 0.7016 -0.3141
vn 0.4754 0.7596 -0.4438
vn 0.5517 0.8196 -0.1545
vn 0.1146 0.8119 0.5724
vn 0.2972 0.6211 0.7252
vn 0.3253 0.7608 0.5615
vn 0.5206 0.6739 0.5243
vn 0.3381 0.8647 0.3714
vn -0.4560 0.7262 -0.5144
vn -0.7024 0.5935 -0.3930
vn -0.5688 0.7529 -0.3310
vn -0.6549 0.7441 -0.1319
vn -0.4085 0.8769 -0.2534
vn 0.1024 0.9803 -0.1686
vn -0.1446 0.9292 -0.3402
vn -0.1116 0.9848 -0.1330
vn -0.3204 0.9429 -0.0912
vn -0.0733 0.9941 0.0804
vn -0.0272 0.8208 0.5706
vn -0.0885 0.9496 0.3008
vn -0.2088 0.8633 0.4595
vn -0.3805 0.8651 0.3268
vn -0.3193 0.7363 0.5965
vn 0.1869 0.9764 0.1079
vn 0.1079 0.9764 -0.1869
vn -0.1869 0.9764 -0.1079
vn -0.1079 0.9764 0.1869
# 39 vertex normals

vt 0.0000 1.0000 0.0000
vt 0.0000 0.0000 0.0000
vt 0.5000 0.5000 0.0000
vt 1.0000 0.0000 0.0000
vt 1.0000 1.0000 0.0000
# 5 texture coords

g tiny_weed_01
s 1
f 1/1/1 2/2/2 3/3/3 
f 2/2/2 4/4/4 3/3/3 
f 4/4/4 5/5/5 3/3/3 
f 5/5/5 1/1/1 3/3/3 
f 6/1/6 7/2/7 8/3/8 
f 7/2/7 9/4/9 8/3/8 
f 9/4/9 10/5/10 8/3/8 
f 10/5/10 6/1/6 8/3/8 
f 11/1/11 12/2/12 13/3/13 
f 12/2/12 14/4/14 13/3/13 
f 14/4/14 15/5/15 13/3/13 
f 15/5/15 11/1/11 13/3/13 
f 16/1/16 17/2/17 18/3/18 
f 17/2/17 19/4/19 18/3/18 
f 19/4/19 20/5/20 18/3/18 
f 20/5/20 16/1/16 18/3/18 
f 21/1/21 22/2/22 23/3/23 
f 22/2/22 24/4/24 23/3/23 
f 24/4/24 25/5/25 23/3/23 
f 25/5/25 21/1/21 23/3/23 
f 26/1/26 27/2/27 28/3/28 
f 27/2/27 29/4/29 28/3/28 
f 29/4/29 30/5/30 28/3/28 
f 30/5/30 26/1/26 28/3/28 
f 31/1/31 32/2/32 33/3/33 
f 32/2/32 34/4/34 33/3/33 
f 34/4/34 35/5/35 33/3/33 
f 35/5/35 31/1/31 33/3/33 
f 36/1/36 37/2/37 38/3/3 
f 37/2/37 39/4/38 38/3/3 
f 39/4/38 40/5/39 38/3/3 
f 40/5/39 36/1/36 38/3/3 
# 0 polygons - 32 triangles

