# 3ds Max Wavefront OBJ Exporter v0.97b - (c)2007 guruware
# File Created: 05.05.2012 16:32:45

#
# object hesco_stones
#

v  -8.1654 51.3531 27.0809
v  -8.5910 34.7136 28.4924
v  8.5910 34.7136 28.4924
v  8.1654 51.3531 27.0809
v  27.0809 51.3531 8.1654
v  28.4924 34.7136 8.5910
v  28.4924 34.7136 -8.5910
v  27.0809 51.3531 -8.1654
v  8.1654 51.3531 -27.0809
v  8.5910 34.7136 -28.4924
v  -8.5910 34.7136 -28.4924
v  -8.1654 51.3531 -27.0809
v  -27.0809 51.3531 -8.1654
v  -28.4924 34.7136 -8.5910
v  -28.4924 34.7136 8.5910
v  -27.0809 51.3531 8.1654
v  -27.6378 0.0000 8.3333
v  -27.6378 0.0000 -8.3333
v  -26.5571 0.0000 -8.0745
v  -26.5571 0.0000 8.0744
v  -8.3333 0.0000 -27.6378
v  8.3333 0.0000 -27.6378
v  8.0744 0.0000 -26.5571
v  -8.0745 0.0000 -26.5571
v  27.6378 0.0000 -8.3333
v  27.6378 0.0000 8.3333
v  26.5571 0.0000 8.0745
v  26.5571 0.0000 -8.0744
v  8.3333 0.0000 27.6378
v  -8.3333 0.0000 27.6378
v  -8.0744 0.0000 26.5571
v  8.0744 0.0000 26.5571
v  -8.3333 55.0000 27.6378
v  8.3333 55.0000 27.6378
v  8.0744 54.2738 26.5571
v  -8.0744 54.2738 26.5571
v  27.6378 55.0000 8.3333
v  27.6378 55.0000 -8.3333
v  26.5571 54.2738 -8.0744
v  26.5571 54.2738 8.0745
v  8.3333 55.0000 -27.6378
v  -8.3333 55.0000 -27.6378
v  -8.0745 54.2738 -26.5571
v  8.0744 54.2738 -26.5571
v  -27.6378 55.0000 -8.3333
v  -27.6378 55.0000 8.3333
v  -26.5571 54.2738 8.0744
v  -26.5571 54.2738 -8.0745
v  -27.6647 34.7136 8.4112
v  -27.6647 34.7136 -8.4113
v  -8.4113 34.7136 -27.6647
v  8.4112 34.7136 -27.6647
v  27.6647 34.7136 -8.4111
v  27.6647 34.7136 8.4113
v  8.4112 34.7136 27.6647
v  -8.4112 34.7136 27.6647
v  25.7731 34.7136 25.7731
v  24.4963 51.3531 24.4963
v  -25.0000 55.0000 25.0000
v  -25.0000 51.0750 25.0000
v  -8.3333 51.0750 27.6378
v  -25.7731 34.7136 -25.7731
v  -24.4963 51.3531 -24.4963
v  25.0000 55.0000 -25.0000
v  25.0000 51.0750 -25.0000
v  8.3333 51.0750 -27.6378
v  24.2233 0.0000 -24.2233
v  25.0000 0.0000 -25.0000
v  -24.2233 0.0000 -24.2234
v  -25.0000 0.0000 -25.0000
v  -24.2233 0.0000 24.2233
v  -25.0000 0.0000 25.0000
v  24.2234 0.0000 24.2233
v  25.0000 0.0000 25.0000
v  24.2234 54.2738 24.2233
v  25.0000 55.0000 25.0000
v  -24.2233 54.2738 24.2233
v  -24.2233 54.2738 -24.2234
v  -25.0000 55.0000 -25.0000
v  24.2233 54.2738 -24.2233
v  25.2336 34.7136 -25.2336
v  -8.4711 2.6948 -27.8615
v  -25.4131 2.6948 -25.4132
v  -25.2336 34.7136 25.2336
v  8.4710 2.6948 27.8615
v  25.4132 2.6948 25.4131
v  25.7731 34.7136 -25.7731
v  24.4963 51.3531 -24.4963
v  25.0000 51.0750 25.0000
v  27.6378 51.0750 8.3333
v  -25.7731 34.7136 25.7731
v  -24.4963 51.3531 24.4963
v  -25.0000 51.0750 -25.0000
v  -27.6378 51.0750 -8.3333
v  -25.2336 34.7136 -25.2337
v  -27.8615 2.6948 8.4710
v  -25.4131 2.6948 25.4131
v  25.2337 34.7136 25.2336
v  27.8615 2.6948 -8.4710
v  25.4131 2.6948 -25.4131
v  8.3333 51.0750 27.6378
v  27.6378 51.0750 -8.3333
v  -8.3333 51.0750 -27.6378
v  -27.6378 51.0750 8.3333
v  -8.7310 2.6948 28.9567
v  -26.1930 2.6948 26.1930
v  8.7310 2.6948 -28.9567
v  26.1930 2.6948 -26.1930
v  28.9567 2.6948 8.7310
v  26.1930 2.6948 26.1930
v  -28.9567 2.6948 -8.7310
v  -26.1930 2.6948 -26.1930
v  -8.8630 11.2524 29.3947
v  8.8630 11.2524 29.3947
v  29.3947 11.2524 8.8630
v  29.3947 11.2524 -8.8630
v  8.8630 11.2524 -29.3947
v  -8.8630 11.2524 -29.3947
v  -29.3947 11.2524 -8.8630
v  -29.3947 11.2524 8.8630
v  -28.4297 11.2524 8.6437
v  -28.4297 11.2524 -8.6438
v  -8.6438 11.2524 -28.4297
v  8.6437 11.2524 -28.4297
v  28.4297 11.2524 -8.6437
v  28.4297 11.2524 8.6438
v  8.6437 11.2524 28.4297
v  -8.6437 11.2524 28.4297
v  26.5892 11.2524 26.5892
v  -26.5892 11.2524 -26.5892
v  25.9313 11.2524 -25.9313
v  -25.9313 11.2524 25.9313
v  26.5892 11.2524 -26.5892
v  -26.5892 11.2524 26.5892
v  -25.9313 11.2524 -25.9314
v  25.9314 11.2524 25.9313
v  8.7310 2.6948 28.9567
v  28.9567 2.6948 -8.7310
v  -8.7310 2.6948 -28.9567
v  -28.9567 2.6948 8.7310
v  -27.8615 2.6948 -8.4711
v  8.4710 2.6948 -27.8615
v  27.8615 2.6948 8.4711
v  -8.4710 2.6948 27.8615
v  9.1627 54.8988 -9.1627
v  -9.1627 55.3396 -9.1627
v  -9.1627 54.8988 9.1627
v  9.1627 53.9483 9.1627
v  24.8532 51.9701 24.8531
v  27.2476 51.9701 8.2844
v  8.2843 51.9701 27.2476
v  27.2476 51.9701 -8.2843
v  24.8531 51.9701 -24.8531
v  8.2843 51.9701 -27.2476
v  -8.2844 51.9701 -27.2476
v  -24.8531 51.9701 -24.8532
v  -27.2476 51.9701 -8.2844
v  -27.2476 51.9701 8.2843
v  -24.8531 51.9701 24.8531
v  -8.2843 51.9701 27.2476
# 160 vertices

vn -0.0772 0.0862 0.9933
vn -0.0785 0.0627 0.9949
vn 0.0785 0.0627 0.9949
vn 0.0772 0.0862 0.9933
vn 0.9933 0.0862 0.0772
vn 0.9949 0.0627 0.0785
vn 0.9949 0.0627 -0.0785
vn 0.9933 0.0862 -0.0772
vn 0.0772 0.0862 -0.9933
vn 0.0785 0.0627 -0.9949
vn -0.0785 0.0627 -0.9949
vn -0.0772 0.0862 -0.9933
vn -0.9933 0.0862 -0.0772
vn -0.9949 0.0627 -0.0785
vn -0.9949 0.0627 0.0785
vn -0.9933 0.0862 0.0772
vn 0.0000 -1.0000 -0.0000
vn 0.8357 -0.5463 0.0561
vn 0.8357 -0.5463 -0.0561
vn -0.0561 -0.5463 0.8357
vn 0.0561 -0.5463 0.8357
vn -0.8357 -0.5463 -0.0561
vn -0.8357 -0.5463 0.0561
vn 0.0561 -0.5463 -0.8357
vn -0.0561 -0.5463 -0.8357
vn 0.0432 0.8326 -0.5522
vn -0.0432 0.8326 -0.5522
vn -0.0613 0.4567 -0.8875
vn 0.0613 0.4567 -0.8875
vn -0.5522 0.8326 -0.0432
vn -0.5522 0.8326 0.0432
vn -0.8875 0.4567 0.0613
vn -0.8875 0.4567 -0.0613
vn -0.0432 0.8326 0.5522
vn 0.0432 0.8326 0.5522
vn 0.0613 0.4567 0.8875
vn -0.0613 0.4567 0.8875
vn 0.5522 0.8326 0.0432
vn 0.5522 0.8326 -0.0432
vn 0.8875 0.4567 -0.0613
vn 0.8875 0.4567 0.0613
vn 0.9964 -0.0454 -0.0717
vn 0.9964 -0.0454 0.0717
vn 0.0717 -0.0454 0.9964
vn -0.0717 -0.0454 0.9964
vn -0.9964 -0.0454 0.0717
vn -0.9964 -0.0454 -0.0717
vn -0.0717 -0.0454 -0.9964
vn 0.0717 -0.0454 -0.9964
vn 0.7050 0.0777 0.7050
vn 0.7030 0.1079 0.7030
vn -0.0784 0.0000 0.9969
vn -0.7071 0.0000 0.7071
vn -0.7050 0.0777 -0.7050
vn -0.7030 0.1079 -0.7030
vn 0.0784 0.0000 -0.9969
vn 0.7071 0.0000 -0.7071
vn -0.4983 -0.7095 0.4983
vn 0.4983 -0.7095 0.4983
vn 0.4983 -0.7095 -0.4983
vn -0.4983 -0.7095 -0.4983
vn -0.5929 0.5450 -0.5928
vn -0.3900 0.8342 -0.3900
vn 0.5928 0.5450 -0.5928
vn 0.3900 0.8342 -0.3900
vn 0.5928 0.5450 0.5929
vn 0.3900 0.8342 0.3900
vn -0.5928 0.5450 0.5928
vn -0.3900 0.8342 0.3900
vn -0.7060 -0.0571 0.7060
vn 0.0709 0.2579 0.9636
vn 0.6762 0.2922 0.6762
vn 0.7060 -0.0571 -0.7060
vn -0.0709 0.2579 -0.9636
vn -0.6762 0.2922 -0.6762
vn 0.7050 0.0777 -0.7050
vn 0.7030 0.1079 -0.7030
vn 0.9969 0.0000 0.0784
vn 0.7071 0.0000 0.7071
vn -0.7050 0.0777 0.7050
vn -0.7030 0.1079 0.7030
vn -0.9969 0.0000 -0.0784
vn -0.7071 0.0000 -0.7071
vn 0.7060 -0.0571 0.7060
vn 0.9636 0.2579 -0.0709
vn 0.6762 0.2922 -0.6762
vn -0.7060 -0.0571 -0.7060
vn -0.9636 0.2579 0.0709
vn -0.6762 0.2922 0.6762
vn 0.0784 0.0000 0.9969
vn 0.9969 0.0000 -0.0784
vn -0.0784 0.0000 -0.9969
vn -0.9969 0.0000 0.0784
vn -0.0777 -0.2526 0.9645
vn -0.6781 -0.2834 0.6781
vn -0.5993 -0.5306 0.5993
vn -0.0657 -0.4464 0.8924
vn 0.0777 -0.2526 -0.9645
vn 0.6781 -0.2834 -0.6781
vn 0.5993 -0.5306 -0.5993
vn 0.0657 -0.4464 -0.8924
vn 0.9645 -0.2526 0.0777
vn 0.6781 -0.2834 0.6781
vn 0.5993 -0.5306 0.5993
vn 0.8924 -0.4464 0.0657
vn -0.9645 -0.2526 -0.0777
vn -0.6781 -0.2834 -0.6781
vn -0.5993 -0.5306 -0.5993
vn -0.8924 -0.4464 -0.0657
vn 0.0300 -0.8978 -0.4393
vn -0.0300 -0.8978 -0.4393
vn -0.0384 -0.8986 -0.4372
vn 0.0384 -0.8986 -0.4372
vn -0.4393 -0.8978 -0.0300
vn -0.4393 -0.8978 0.0300
vn -0.4372 -0.8986 0.0384
vn -0.4372 -0.8986 -0.0384
vn -0.0300 -0.8978 0.4393
vn 0.0300 -0.8978 0.4393
vn 0.0384 -0.8986 0.4372
vn -0.0384 -0.8986 0.4372
vn 0.4393 -0.8978 0.0300
vn 0.4393 -0.8978 -0.0300
vn 0.4372 -0.8986 -0.0384
vn 0.4372 -0.8986 0.0384
vn -0.2572 -0.9315 -0.2572
vn 0.2572 -0.9315 -0.2572
vn 0.2572 -0.9315 0.2572
vn -0.2572 -0.9315 0.2572
vn -0.0789 -0.0065 0.9969
vn 0.0789 -0.0065 0.9969
vn 0.9969 -0.0065 0.0789
vn 0.9969 -0.0065 -0.0789
vn 0.0789 -0.0065 -0.9969
vn -0.0789 -0.0065 -0.9969
vn -0.9969 -0.0065 -0.0789
vn -0.9969 -0.0065 0.0789
vn 0.9972 0.0171 -0.0722
vn 0.9972 0.0171 0.0722
vn 0.0722 0.0171 0.9972
vn -0.0722 0.0171 0.9972
vn -0.9972 0.0171 0.0722
vn -0.9972 0.0171 -0.0722
vn -0.0722 0.0171 -0.9972
vn 0.0722 0.0171 -0.9972
vn 0.7071 -0.0079 0.7071
vn -0.7071 -0.0079 -0.7071
vn -0.7069 0.0212 0.7069
vn 0.7069 0.0212 -0.7069
vn 0.7071 -0.0079 -0.7071
vn -0.7071 -0.0079 0.7071
vn 0.7069 0.0212 0.7069
vn -0.7069 0.0212 -0.7069
vn 0.0657 -0.4464 0.8924
vn 0.0777 -0.2526 0.9645
vn 0.8924 -0.4464 -0.0657
vn 0.9645 -0.2526 -0.0777
vn -0.0657 -0.4464 -0.8924
vn -0.0777 -0.2526 -0.9645
vn -0.8924 -0.4464 0.0657
vn -0.9645 -0.2526 0.0777
vn 0.9636 0.2579 0.0709
vn -0.0709 0.2579 0.9636
vn -0.9636 0.2579 -0.0709
vn 0.0709 0.2579 -0.9636
vn 0.0724 0.9962 -0.0476
vn -0.0634 0.9963 -0.0581
vn -0.0445 0.9962 0.0754
vn 0.0632 0.9952 0.0748
vn 0.0628 0.9960 0.0628
vn 0.1236 0.9921 0.0212
vn 0.0073 0.9940 0.1091
vn 0.1604 0.9870 -0.0107
vn 0.0925 0.9914 -0.0925
vn 0.0171 0.9858 -0.1670
vn -0.0123 0.9829 -0.1837
vn -0.1062 0.9887 -0.1062
vn -0.1772 0.9842 -0.0059
vn -0.1604 0.9870 0.0107
vn -0.0925 0.9914 0.0925
vn 0.0032 0.9893 0.1460
# 181 vertex normals

vt 0.3362 0.2618 0.0000
vt 0.3359 0.1795 0.0000
vt 0.4175 0.1795 0.0000
vt 0.4173 0.2618 0.0000
vt 0.5826 0.2616 0.0000
vt 0.5822 0.1793 0.0000
vt 0.6638 0.1793 0.0000
vt 0.6633 0.2616 0.0000
vt 0.8282 0.2625 0.0000
vt 0.8287 0.1802 0.0000
vt 0.9104 0.1806 0.0000
vt 0.9091 0.2629 0.0000
vt 0.0900 0.2617 0.0000
vt 0.0895 0.1794 0.0000
vt 0.1711 0.1793 0.0000
vt 0.1708 0.2616 0.0000
vt 0.1712 0.0079 0.0000
vt 0.0893 0.0079 0.0000
vt 0.0901 0.0025 0.0000
vt 0.1702 0.0025 0.0000
vt 0.9124 0.0092 0.0000
vt 0.8304 0.0088 0.0000
vt 0.8313 0.0035 0.0000
vt 0.9116 0.0037 0.0000
vt 0.6642 0.0078 0.0000
vt 0.5822 0.0078 0.0000
vt 0.5832 0.0024 0.0000
vt 0.6633 0.0024 0.0000
vt 0.4173 0.0082 0.0000
vt 0.3360 0.0082 0.0000
vt 0.3369 0.0028 0.0000
vt 0.4165 0.0028 0.0000
vt 0.3359 0.2842 0.0000
vt 0.4177 0.2842 0.0000
vt 0.4172 0.2905 0.0000
vt 0.3364 0.2905 0.0000
vt 0.5817 0.2841 0.0000
vt 0.6634 0.2841 0.0000
vt 0.6627 0.2904 0.0000
vt 0.5820 0.2904 0.0000
vt 0.8273 0.2850 0.0000
vt 0.9092 0.2851 0.0000
vt 0.9080 0.2916 0.0000
vt 0.8275 0.2912 0.0000
vt 0.0899 0.2841 0.0000
vt 0.1718 0.2841 0.0000
vt 0.1718 0.2905 0.0000
vt 0.0913 0.2905 0.0000
vt 0.1720 0.3872 0.0000
vt 0.0914 0.3872 0.0000
vt 0.9069 0.3884 0.0000
vt 0.8264 0.3878 0.0000
vt 0.6628 0.3871 0.0000
vt 0.5818 0.3871 0.0000
vt 0.4175 0.3872 0.0000
vt 0.3362 0.3872 0.0000
vt 0.4996 0.1793 0.0000
vt 0.5000 0.2616 0.0000
vt 0.2539 0.2843 0.0000
vt 0.2536 0.2648 0.0000
vt 0.3359 0.2648 0.0000
vt 0.9929 0.1817 0.0000
vt 0.9908 0.2640 0.0000
vt 0.7453 0.2842 0.0000
vt 0.7456 0.2648 0.0000
vt 0.8278 0.2656 0.0000
vt 0.7505 0.0034 0.0000
vt 0.7473 0.0078 0.0000
vt 0.9925 0.0057 0.0000
vt 0.9957 0.0102 0.0000
vt 0.2564 0.0035 0.0000
vt 0.2537 0.0078 0.0000
vt 0.4970 0.0034 0.0000
vt 0.4996 0.0078 0.0000
vt 0.4996 0.2901 0.0000
vt 0.4997 0.2842 0.0000
vt 0.2540 0.2902 0.0000
vt 0.9888 0.2927 0.0000
vt 0.9924 0.2869 0.0000
vt 0.7451 0.2902 0.0000
vt 0.7450 0.3870 0.0000
vt 0.9046 0.5599 0.0000
vt 0.9048 0.5466 0.0000
vt 0.9854 0.5475 0.0000
vt 0.9852 0.5608 0.0000
vt 0.2543 0.3870 0.0000
vt 0.4176 0.5586 0.0000
vt 0.4176 0.5453 0.0000
vt 0.4997 0.5451 0.0000
vt 0.4997 0.5584 0.0000
vt 0.7460 0.1793 0.0000
vt 0.7457 0.2616 0.0000
vt 0.4998 0.2648 0.0000
vt 0.5819 0.2647 0.0000
vt 0.2532 0.1793 0.0000
vt 0.2534 0.2616 0.0000
vt 0.0067 0.2844 0.0000
vt 0.0063 0.2648 0.0000
vt 0.0895 0.2648 0.0000
vt 0.0093 0.0035 0.0000
vt 0.0061 0.0079 0.0000
vt 0.2509 0.0034 0.0000
vt 0.5025 0.0034 0.0000
vt 0.7441 0.0034 0.0000
vt 0.0105 0.2903 0.0000
vt 0.0105 0.3871 0.0000
vt 0.1721 0.5586 0.0000
vt 0.1721 0.5453 0.0000
vt 0.2540 0.5452 0.0000
vt 0.2540 0.5585 0.0000
vt 0.4999 0.3869 0.0000
vt 0.6627 0.5585 0.0000
vt 0.6627 0.5452 0.0000
vt 0.7441 0.5452 0.0000
vt 0.7440 0.5585 0.0000
vt 0.4176 0.2648 0.0000
vt 0.6635 0.2647 0.0000
vt 0.9097 0.2658 0.0000
vt 0.1714 0.2648 0.0000
vt 0.3360 0.0215 0.0000
vt 0.2537 0.0211 0.0000
vt 0.9929 0.2674 0.0000
vt 0.8303 0.0221 0.0000
vt 0.7472 0.0211 0.0000
vt 0.5822 0.0211 0.0000
vt 0.4996 0.0211 0.0000
vt 0.0893 0.0212 0.0000
vt 0.0062 0.0212 0.0000
vt 0.0082 0.2617 0.0000
vt 0.3361 0.0638 0.0000
vt 0.4172 0.0638 0.0000
vt 0.5823 0.0635 0.0000
vt 0.6639 0.0635 0.0000
vt 0.8299 0.0644 0.0000
vt 0.9115 0.0648 0.0000
vt 0.0895 0.0636 0.0000
vt 0.1710 0.0635 0.0000
vt 0.1721 0.5030 0.0000
vt 0.0916 0.5030 0.0000
vt 0.9054 0.5042 0.0000
vt 0.8253 0.5035 0.0000
vt 0.6627 0.5029 0.0000
vt 0.5818 0.5029 0.0000
vt 0.4175 0.5030 0.0000
vt 0.3363 0.5030 0.0000
vt 0.4994 0.0635 0.0000
vt 0.9940 0.0659 0.0000
vt 0.7446 0.5028 0.0000
vt 0.9881 0.3894 0.0000
vt 0.2544 0.5028 0.0000
vt 0.7466 0.0635 0.0000
vt 0.2533 0.0635 0.0000
vt 0.0111 0.5029 0.0000
vt 0.5000 0.5027 0.0000
vt 0.0066 0.1793 0.0000
vt 0.9863 0.5051 0.0000
vt 0.0064 0.0636 0.0000
vt 0.4173 0.0215 0.0000
vt 0.6641 0.0211 0.0000
vt 0.9122 0.0225 0.0000
vt 0.1712 0.0212 0.0000
vt 0.0916 0.5586 0.0000
vt 0.0916 0.5453 0.0000
vt 0.8247 0.5591 0.0000
vt 0.8248 0.5458 0.0000
vt 0.5817 0.5585 0.0000
vt 0.5817 0.5452 0.0000
vt 0.3362 0.5586 0.0000
vt 0.3362 0.5453 0.0000
vt 0.9954 0.0235 0.0000
vt 0.0107 0.5586 0.0000
vt 0.0107 0.5453 0.0000
vt 0.8306 0.7343 20.5140
vt 0.8850 0.7915 20.5140
vt 0.8278 0.8459 20.5140
vt 0.7734 0.7887 20.5140
vt 0.6779 0.7863 19.5140
vt 0.7225 0.7297 19.5140
vt 0.7196 0.8451 19.5140
vt 0.7742 0.6805 19.5140
vt 0.8330 0.6388 19.5140
vt 0.8897 0.6834 19.5140
vt 0.9388 0.7351 19.5140
vt 0.9805 0.7939 19.5140
vt 0.9359 0.8506 19.5140
vt 0.8842 0.8997 19.5140
vt 0.8254 0.9414 19.5140
vt 0.7688 0.8968 19.5140
# 188 texture coords

g hesco_stones
s 1
f 1/1/1 2/2/2 3/3/3 4/4/4 
f 5/5/5 6/6/6 7/7/7 8/8/8 
f 9/9/9 10/10/10 11/11/11 12/12/12 
f 13/13/13 14/14/14 15/15/15 16/16/16 
s 2
f 17/17/17 18/18/17 19/19/18 20/20/19 
f 21/21/17 22/22/17 23/23/20 24/24/21 
f 25/25/17 26/26/17 27/27/22 28/28/23 
f 29/29/17 30/30/17 31/31/24 32/32/25 
f 33/33/26 34/34/27 35/35/28 36/36/29 
f 37/37/30 38/38/31 39/39/32 40/40/33 
f 41/41/34 42/42/35 43/43/36 44/44/37 
f 45/45/38 46/46/39 47/47/40 48/48/41 
f 47/47/40 49/49/42 50/50/43 48/48/41 
f 43/43/36 51/51/44 52/52/45 44/44/37 
f 39/39/32 53/53/46 54/54/47 40/40/33 
f 35/35/28 55/55/48 56/56/49 36/36/29 
s 1
f 4/4/4 3/3/3 57/57/50 58/58/51 
f 33/33/52 59/59/53 60/60/53 61/61/52 
f 12/12/12 11/11/11 62/62/54 63/63/55 
f 41/41/56 64/64/57 65/65/57 66/66/56 
s 2
f 67/67/58 23/23/20 22/22/17 68/68/17 
f 21/21/17 24/24/21 69/69/59 70/70/17 
f 71/71/60 31/31/24 30/30/17 72/72/17 
f 29/29/17 32/32/25 73/73/61 74/74/17 
f 75/75/62 35/35/28 34/34/27 76/76/63 
f 33/33/26 36/36/29 77/77/64 59/59/65 
f 78/78/66 43/43/36 42/42/35 79/79/67 
f 41/41/34 44/44/37 80/80/68 64/64/69 
f 44/44/37 52/52/45 81/81/70 80/80/68 
f 24/82/21 82/83/71 83/84/72 69/85/59 
f 36/36/29 56/56/49 84/86/73 77/77/64 
f 32/87/25 85/88/74 86/89/75 73/90/61 
s 1
f 8/8/8 7/7/7 87/91/76 88/92/77 
f 37/37/78 76/76/79 89/93/79 90/94/78 
f 16/16/16 15/15/15 91/95/80 92/96/81 
f 45/45/82 79/97/83 93/98/83 94/99/82 
s 2
f 69/100/59 19/19/18 18/18/17 70/101/17 
f 17/17/17 20/20/19 71/102/60 72/72/17 
f 73/103/61 27/27/22 26/26/17 74/74/17 
f 25/25/17 28/28/23 67/104/58 68/68/17 
f 80/80/68 39/39/32 38/38/31 64/64/69 
f 37/37/30 40/40/33 75/75/62 76/76/63 
f 77/77/64 47/47/40 46/46/39 59/59/65 
f 45/45/38 48/48/41 78/105/66 79/97/67 
f 48/48/41 50/50/43 95/106/84 78/105/66 
f 20/107/19 96/108/85 97/109/86 71/110/60 
f 40/40/33 54/54/47 98/111/87 75/75/62 
f 28/112/23 99/113/88 100/114/89 67/115/58 
s 1
f 101/116/90 34/34/90 33/33/52 61/61/52 
f 102/117/91 38/38/91 37/37/78 90/94/78 
f 103/118/92 42/42/92 41/41/56 66/66/56 
f 104/119/93 46/46/93 45/45/82 94/99/82 
f 89/93/79 76/76/79 34/34/90 101/116/90 
f 105/120/94 106/121/95 72/72/96 30/30/97 
f 93/122/83 79/79/83 42/42/92 103/118/92 
f 107/123/98 108/124/99 68/68/100 22/22/101 
f 65/65/57 64/64/57 38/38/91 102/117/91 
f 109/125/102 110/126/103 74/74/104 26/26/105 
f 60/60/53 59/59/53 46/46/93 104/119/93 
f 111/127/106 112/128/107 70/101/108 18/18/109 
s 2
f 1/1/110 4/4/111 101/116/112 61/61/113 
f 5/5/114 8/8/115 102/117/116 90/94/117 
f 9/9/118 12/12/119 103/118/120 66/66/121 
f 13/13/122 16/16/123 104/119/124 94/99/125 
f 101/116/112 4/4/111 58/58/126 89/93/126 
f 61/61/113 60/60/127 92/96/127 1/1/110 
f 103/118/120 12/12/119 63/63/128 93/122/128 
f 66/66/121 65/65/129 88/92/129 9/9/118 
f 102/117/116 8/8/115 88/92/129 65/65/129 
f 90/94/117 89/93/126 58/58/126 5/5/114 
f 104/119/124 16/16/123 92/96/127 60/60/127 
f 94/99/125 93/98/128 63/129/128 13/13/122 
s 1
f 113/130/130 114/131/131 3/3/3 2/2/2 
f 115/132/132 116/133/133 7/7/7 6/6/6 
f 117/134/134 118/135/135 11/11/11 10/10/10 
f 119/136/136 120/137/137 15/15/15 14/14/14 
s 2
f 121/138/138 122/139/139 50/50/43 49/49/42 
f 123/140/140 124/141/141 52/52/45 51/51/44 
f 125/142/142 126/143/143 54/54/47 53/53/46 
f 127/144/144 128/145/145 56/56/49 55/55/48 
s 1
f 114/131/131 129/146/146 57/57/50 3/3/3 
f 118/135/135 130/147/147 62/62/54 11/11/11 
s 2
f 124/141/141 131/148/148 81/81/70 52/52/45 
f 43/43/36 78/78/66 95/149/84 51/51/44 
f 128/145/145 132/150/149 84/86/73 56/56/49 
f 35/35/28 75/75/62 98/111/87 55/55/48 
s 1
f 116/133/133 133/151/150 87/91/76 7/7/7 
f 120/137/137 134/152/151 91/95/80 15/15/15 
s 2
f 122/139/139 135/153/152 95/106/84 50/50/43 
f 47/47/40 77/77/64 84/86/73 49/49/42 
f 126/143/143 136/154/153 98/111/87 54/54/47 
f 39/39/32 80/80/68 81/81/70 53/53/46 
s 1
f 1/1/1 92/96/81 91/95/80 2/2/2 
f 9/9/9 88/92/77 87/91/76 10/10/10 
f 5/5/5 58/58/51 57/57/50 6/6/6 
f 13/13/13 63/129/55 62/155/54 14/14/14 
s 2
f 123/140/140 135/156/152 83/84/72 82/83/71 
f 127/144/144 136/154/153 86/89/75 85/88/74 
f 121/138/138 132/150/149 97/109/86 96/108/85 
f 125/142/142 131/148/148 100/114/89 99/113/88 
s 1
f 113/130/130 134/152/151 106/121/95 105/120/94 
f 117/134/134 133/151/150 108/124/99 107/123/98 
f 115/132/132 129/146/146 110/126/103 109/125/102 
f 119/136/136 130/157/147 112/128/107 111/127/106 
f 30/30/97 29/29/154 137/158/155 105/120/94 
f 26/26/105 25/25/156 138/159/157 109/125/102 
f 22/22/101 21/21/158 139/160/159 107/123/98 
f 18/18/109 17/17/160 140/161/161 111/127/106 
s 2
f 20/107/19 19/162/18 141/163/162 96/108/85 
f 24/82/21 23/164/20 142/165/163 82/83/71 
f 28/112/23 27/166/22 143/167/164 99/113/88 
f 32/87/25 31/168/24 144/169/165 85/88/74 
s 1
f 29/29/154 74/74/104 110/126/103 137/158/155 
f 21/21/158 70/70/108 112/170/107 139/160/159 
s 2
f 23/164/20 67/115/58 100/114/89 142/165/163 
f 31/168/24 71/110/60 97/109/86 144/169/165 
s 1
f 25/25/156 68/68/100 108/124/99 138/159/157 
f 17/17/160 72/72/96 106/121/95 140/161/161 
s 2
f 19/162/18 69/171/59 83/172/72 141/163/162 
f 27/166/22 73/90/61 86/89/75 143/167/164 
s 1
f 105/120/94 137/158/155 114/131/131 113/130/130 
f 109/125/102 138/159/157 116/133/133 115/132/132 
f 107/123/98 139/160/159 118/135/135 117/134/134 
f 111/127/106 140/161/161 120/137/137 119/136/136 
s 2
f 96/108/85 141/163/162 122/139/139 121/138/138 
f 82/83/71 142/165/163 124/141/141 123/140/140 
f 99/113/88 143/167/164 126/143/143 125/142/142 
f 85/88/74 144/169/165 128/145/145 127/144/144 
s 1
f 137/158/155 110/126/103 129/146/146 114/131/131 
f 139/160/159 112/170/107 130/147/147 118/135/135 
s 2
f 142/165/163 100/114/89 131/148/148 124/141/141 
f 144/169/165 97/109/86 132/150/149 128/145/145 
s 1
f 138/159/157 108/124/99 133/151/150 116/133/133 
f 140/161/161 106/121/95 134/152/151 120/137/137 
s 2
f 141/163/162 83/172/72 135/153/152 122/139/139 
f 143/167/164 86/89/75 136/154/153 126/143/143 
f 51/51/44 95/149/84 135/156/152 123/140/140 
f 55/55/48 98/111/87 136/154/153 127/144/144 
f 49/49/42 84/86/73 132/150/149 121/138/138 
f 53/53/46 81/81/70 131/148/148 125/142/142 
s 1
f 2/2/2 91/95/80 134/152/151 113/130/130 
f 10/10/10 87/91/76 133/151/150 117/134/134 
f 6/6/6 57/57/50 129/146/146 115/132/132 
f 14/14/14 62/155/54 130/157/147 119/136/136 
f 145/173/166 146/174/167 147/175/168 148/176/169 
f 149/177/170 150/178/171 148/176/169 151/179/172 
f 150/178/171 152/180/173 145/173/166 148/176/169 
f 153/181/174 154/182/175 145/173/166 152/180/173 
f 154/182/175 155/183/176 146/174/167 145/173/166 
f 156/184/177 157/185/178 146/174/167 155/183/176 
f 157/185/178 158/186/179 147/175/168 146/174/167 
f 159/187/180 160/188/181 147/175/168 158/186/179 
f 160/188/181 151/179/172 148/176/169 147/175/168 
# 153 polygons

