# 3ds Max Wavefront OBJ Exporter v0.97b - (c)2007 guruware
# File Created: 11.06.2013 18:14:51

#
# object tiny_weeds_05
#

v  5.6705 0.0530 1.7588
v  -5.6493 -0.6730 -1.6978
v  -6.1599 9.9623 -2.2597
v  5.1599 10.6884 1.1968
v  -6.9730 20.5850 -1.8282
v  4.3468 21.3110 1.6284
v  -8.0810 31.0941 -0.4072
v  3.2388 31.8201 3.0494
v  -9.4733 41.3899 1.9897
v  1.8465 42.1160 5.4462
v  -11.1367 51.3748 5.3397
v  0.1831 52.1009 8.7963
v  -13.0554 60.9540 9.6112
v  -1.7356 61.6801 13.0677
v  -2.6243 -0.2573 4.2183
v  2.5774 -0.2621 -4.2468
v  3.0201 8.6567 -3.9798
v  -2.1815 8.6615 4.4852
v  2.7215 17.5834 -4.1684
v  -2.4802 17.5883 4.2966
v  1.6842 26.4335 -4.8109
v  -3.5174 26.4384 3.6542
v  -0.0817 35.1229 -5.9010
v  -5.2834 35.1277 2.5640
v  -2.5596 43.5691 -7.4285
v  -7.7613 43.5740 1.0366
v  -5.7260 51.6921 -9.3788
v  -10.9277 51.6969 -0.9138
v  -2.6324 -0.2046 -4.5478
v  2.6223 -0.2046 4.5536
v  4.0294 6.5102 3.7412
v  -1.2253 6.5102 -5.3602
v  7.6195 11.7034 1.6684
v  2.3649 11.7034 -7.4329
v  12.4608 14.3510 -1.1266
v  7.2061 14.3510 -10.2280
v  17.3779 14.1110 -3.9655
v  12.1232 14.1110 -13.0669
v  21.3135 11.3015 -6.2378
v  16.0588 11.3015 -15.3392
v  23.5889 6.6610 -7.5514
v  18.3342 6.6610 -16.6528
v  -3.7805 -0.6588 5.2200
v  3.7962 -0.0522 -5.3041
v  2.1693 12.5198 -5.1699
v  -5.5084 12.0484 5.2738
v  -1.8525 24.3765 -7.6158
v  -9.7666 23.8471 2.5728
v  -7.2223 33.2740 -12.1230
v  -15.3285 32.2439 -2.2587
v  -12.6137 37.8122 -17.8323
v  -20.6693 35.7832 -8.2153
v  -16.8163 37.6566 -23.8179
v  -24.4483 34.2787 -14.2482
v  -19.0298 33.3810 -29.3339
v  -25.8446 28.5678 -19.5566
v  4.7066 0.1028 -2.0701
v  -4.6422 -0.8100 2.1675
v  -5.2360 11.9421 2.4162
v  4.1128 12.8550 -1.8214
v  -4.7638 24.0271 6.3147
v  4.5850 24.9399 2.0770
v  -3.4111 32.7314 12.7056
v  5.9377 33.6443 8.4680
v  -1.5760 36.3781 19.8716
v  7.7728 37.2910 15.6339
v  0.2799 34.6254 26.1160
v  9.6287 35.5382 21.8784
v  1.7763 28.2513 30.2367
v  11.1251 29.1642 25.9991
v  -1.9398 0.1207 -5.7170
v  2.0602 -0.9511 5.6517
v  2.2904 14.0219 6.3718
v  -1.7096 15.0937 -4.9970
v  6.8987 28.2114 6.2183
v  2.8987 29.2832 -5.1505
v  14.5124 38.4316 5.2901
v  10.5125 39.5034 -6.0787
v  23.0822 42.7134 3.8769
v  19.0822 43.7852 -7.4919
v  30.5761 40.6554 2.3451
v  26.5761 41.7272 -9.0236
v  35.5491 33.1713 1.0165
v  31.5491 34.2431 -10.3523
v  4.2940 -3.1646 2.8008
v  -4.4631 2.7573 -2.9606
v  -3.1821 8.9451 0.5482
v  5.8305 4.2573 7.0094
v  -4.7664 13.9114 5.5550
v  3.9303 10.2141 13.0148
v  -8.8538 16.5205 10.9149
v  -0.9723 13.3435 19.4437
v  -14.5096 16.1757 15.4022
v  -7.7560 12.9300 24.8259
v  -20.4404 12.9560 17.9908
v  -14.8697 9.0681 27.9308
v  -25.2901 7.5975 18.0887
v  -20.6865 2.6409 28.0482
v  -2.8883 -0.1878 5.2835
v  3.1315 -0.1878 -5.1431
v  -1.6353 5.6030 -7.8952
v  -7.6551 5.6030 2.5314
v  -7.3995 9.8308 -11.2231
v  -13.4193 9.8308 -0.7966
v  -13.7399 12.2220 -14.8838
v  -19.7597 12.2220 -4.4572
v  -20.2174 12.6612 -18.6236
v  -26.2372 12.6612 -8.1970
v  -26.4288 11.1861 -22.2097
v  -32.4486 11.1861 -11.7832
v  -32.0514 7.9608 -25.4560
v  -38.0712 7.9608 -15.0294
v  4.0082 -0.3115 6.9234
v  -3.9918 -0.3115 -6.9330
v  -5.5521 10.1301 -6.0321
v  2.4479 10.1301 7.8243
v  -9.5704 19.4295 -3.7121
v  -1.5704 19.4295 10.1443
v  -15.5764 26.6841 -0.2445
v  -7.5764 26.6841 13.6119
v  -22.9107 31.2743 3.9899
v  -14.9107 31.2743 17.8463
v  -30.8520 32.9180 8.5748
v  -22.8520 32.9180 22.4312
v  -38.7461 31.6564 13.1324
v  -30.7461 31.6564 26.9888
v  3.9921 -0.3116 -6.9327
v  -4.0079 -0.3116 6.9237
v  -2.0526 9.9892 8.0525
v  5.9474 9.9892 -5.8039
v  2.9761 18.3851 10.9559
v  10.9761 18.3851 -2.9005
v  10.0277 23.5076 15.0271
v  18.0277 23.5076 1.1707
v  17.7241 24.7119 19.4706
v  25.7241 24.7119 5.6142
v  24.7318 22.1058 23.5165
v  32.7318 22.1058 9.6601
v  30.0671 16.3580 26.5968
v  38.0671 16.3580 12.7404
v  -8.0000 -0.3116 0.0092
v  8.0000 -0.3116 0.0092
v  8.0000 10.0308 -2.1239
v  -8.0000 10.0308 -2.1239
v  8.0000 18.6916 -7.6245
v  -8.0000 18.6916 -7.6245
v  8.0000 24.4237 -15.4931
v  -8.0000 24.4237 -15.4931
v  8.0000 26.5555 -24.3918
v  -8.0000 26.5555 -24.3918
v  8.0000 25.0368 -32.9776
v  -8.0000 25.0368 -32.9776
v  8.0000 20.3182 -40.1939
v  -8.0000 20.3182 -40.1939
# 154 vertices

vn 0.0000 1.0000 -0.0000
# 1 vertex normals

vt 0.0000 0.0000 0.0000
vt 1.0000 0.0000 0.0000
vt 1.0000 0.1667 0.0000
vt 0.0000 0.1667 0.0000
vt 1.0000 0.3333 0.0000
vt 0.0000 0.3333 0.0000
vt 1.0000 0.5000 0.0000
vt 0.0000 0.5000 0.0000
vt 1.0000 0.6667 0.0000
vt 0.0000 0.6667 0.0000
vt 1.0000 0.8333 0.0000
vt 0.0000 0.8333 0.0000
vt 1.0000 1.0000 0.0000
vt 0.0000 1.0000 0.0000
# 14 texture coords

g tiny_weeds_05
s 1
f 1/1/1 2/2/1 3/3/1 4/4/1 
f 4/4/1 3/3/1 5/5/1 6/6/1 
f 6/6/1 5/5/1 7/7/1 8/8/1 
f 8/8/1 7/7/1 9/9/1 10/10/1 
f 10/10/1 9/9/1 11/11/1 12/12/1 
f 12/12/1 11/11/1 13/13/1 14/14/1 
f 15/1/1 16/2/1 17/3/1 18/4/1 
f 18/4/1 17/3/1 19/5/1 20/6/1 
f 20/6/1 19/5/1 21/7/1 22/8/1 
f 22/8/1 21/7/1 23/9/1 24/10/1 
f 24/10/1 23/9/1 25/11/1 26/12/1 
f 26/12/1 25/11/1 27/13/1 28/14/1 
f 29/1/1 30/2/1 31/3/1 32/4/1 
f 32/4/1 31/3/1 33/5/1 34/6/1 
f 34/6/1 33/5/1 35/7/1 36/8/1 
f 36/8/1 35/7/1 37/9/1 38/10/1 
f 38/10/1 37/9/1 39/11/1 40/12/1 
f 40/12/1 39/11/1 41/13/1 42/14/1 
f 43/1/1 44/2/1 45/3/1 46/4/1 
f 46/4/1 45/3/1 47/5/1 48/6/1 
f 48/6/1 47/5/1 49/7/1 50/8/1 
f 50/8/1 49/7/1 51/9/1 52/10/1 
f 52/10/1 51/9/1 53/11/1 54/12/1 
f 54/12/1 53/11/1 55/13/1 56/14/1 
f 57/1/1 58/2/1 59/3/1 60/4/1 
f 60/4/1 59/3/1 61/5/1 62/6/1 
f 62/6/1 61/5/1 63/7/1 64/8/1 
f 64/8/1 63/7/1 65/9/1 66/10/1 
f 66/10/1 65/9/1 67/11/1 68/12/1 
f 68/12/1 67/11/1 69/13/1 70/14/1 
f 71/1/1 72/2/1 73/3/1 74/4/1 
f 74/4/1 73/3/1 75/5/1 76/6/1 
f 76/6/1 75/5/1 77/7/1 78/8/1 
f 78/8/1 77/7/1 79/9/1 80/10/1 
f 80/10/1 79/9/1 81/11/1 82/12/1 
f 82/12/1 81/11/1 83/13/1 84/14/1 
f 85/1/1 86/2/1 87/3/1 88/4/1 
f 88/4/1 87/3/1 89/5/1 90/6/1 
f 90/6/1 89/5/1 91/7/1 92/8/1 
f 92/8/1 91/7/1 93/9/1 94/10/1 
f 94/10/1 93/9/1 95/11/1 96/12/1 
f 96/12/1 95/11/1 97/13/1 98/14/1 
f 99/1/1 100/2/1 101/3/1 102/4/1 
f 102/4/1 101/3/1 103/5/1 104/6/1 
f 104/6/1 103/5/1 105/7/1 106/8/1 
f 106/8/1 105/7/1 107/9/1 108/10/1 
f 108/10/1 107/9/1 109/11/1 110/12/1 
f 110/12/1 109/11/1 111/13/1 112/14/1 
f 113/1/1 114/2/1 115/3/1 116/4/1 
f 116/4/1 115/3/1 117/5/1 118/6/1 
f 118/6/1 117/5/1 119/7/1 120/8/1 
f 120/8/1 119/7/1 121/9/1 122/10/1 
f 122/10/1 121/9/1 123/11/1 124/12/1 
f 124/12/1 123/11/1 125/13/1 126/14/1 
f 127/1/1 128/2/1 129/3/1 130/4/1 
f 130/4/1 129/3/1 131/5/1 132/6/1 
f 132/6/1 131/5/1 133/7/1 134/8/1 
f 134/8/1 133/7/1 135/9/1 136/10/1 
f 136/10/1 135/9/1 137/11/1 138/12/1 
f 138/12/1 137/11/1 139/13/1 140/14/1 
f 141/1/1 142/2/1 143/3/1 144/4/1 
f 144/4/1 143/3/1 145/5/1 146/6/1 
f 146/6/1 145/5/1 147/7/1 148/8/1 
f 148/8/1 147/7/1 149/9/1 150/10/1 
f 150/10/1 149/9/1 151/11/1 152/12/1 
f 152/12/1 151/11/1 153/13/1 154/14/1 
# 66 polygons

